<?xml version="1.0" standalone="no"?>
<!DOCTYPE svg PUBLIC "-//W3C//DTD SVG 20010904//EN"
 "http://www.w3.org/TR/2001/REC-SVG-20010904/DTD/svg10.dtd">
<svg version="1.0" xmlns="http://www.w3.org/2000/svg"
 width="126.000000pt" height="145.000000pt" viewBox="0 0 126.000000 145.000000"
 preserveAspectRatio="xMidYMid meet">

<g transform="translate(0.000000,145.000000) scale(0.100000,-0.100000)"
fill="#000000" stroke="none">
<path d="M477 1286 c-80 -33 -121 -69 -133 -116 -4 -14 -18 -37 -31 -51 -29
-32 -41 -100 -35 -212 3 -59 8 -80 20 -84 23 -9 49 30 72 106 25 86 44 104 91
91 58 -17 151 -12 194 10 22 11 41 20 43 20 2 0 0 -9 -3 -20 -5 -14 -2 -20 10
-20 26 0 78 25 113 54 35 30 41 22 17 -24 -14 -27 -13 -35 10 -107 26 -77 48
-113 70 -113 18 0 25 38 26 143 2 120 -13 167 -73 232 -30 33 -44 55 -36 57 7
3 -9 13 -36 23 -53 20 -137 25 -200 12 -36 -8 -38 -7 -27 7 12 14 10 16 -10
16 -13 0 -50 -11 -82 -24z"/>
<path d="M312 496 c-1 -96 2 -186 7 -198 l9 -23 12 28 c7 15 17 27 22 27 5 0
5 -12 1 -27 -18 -71 0 -125 55 -161 22 -14 22 -14 22 31 0 79 11 86 31 20 27
-86 44 -98 140 -98 94 0 108 10 137 98 21 64 32 58 32 -19 l0 -45 31 22 c34
24 63 80 55 107 -2 9 -7 31 -10 47 l-6 30 24 -29 24 -29 6 39 c3 22 5 109 4
196 -3 166 -6 172 -43 74 -10 -27 -30 -63 -45 -80 l-28 -31 -45 22 c-63 31
-213 31 -274 1 -42 -21 -43 -21 -64 -2 -23 21 -69 105 -69 127 0 7 -6 21 -13
31 -11 15 -13 -10 -15 -158z m363 -49 c79 -19 79 -19 57 -47 -18 -23 -26 -24
-122 -24 -97 0 -104 1 -122 25 l-20 24 33 8 c19 5 50 15 69 22 19 7 42 11 50
8 8 -3 33 -10 55 -16z"/>
</g>
</svg>
