<svg width="24" height="25" viewBox="0 0 24 25" fill="none" xmlns="http://www.w3.org/2000/svg">
<path fill-rule="evenodd" clip-rule="evenodd" d="M11.9719 0.148743C11.9796 0.0936217 12.0126 0.045241 12.061 0.0178527L12.0702 0.0126655C12.0958 -0.0018156 12.1266 -0.00399614 12.154 0.0067281C12.2051 0.0267127 12.2406 0.0736573 12.246 0.128235L13.148 9.27219L18.0033 5.90962C18.0484 5.87842 18.105 5.86885 18.1578 5.88352L18.1668 5.88602C18.197 5.89441 18.2218 5.91593 18.2343 5.94463C18.2559 5.99383 18.2504 6.05067 18.22 6.0949L14.9783 10.8015L23.8859 11.9532C23.9525 11.9618 24.0018 12.0195 23.9999 12.0866L23.9986 12.1292C23.9968 12.1934 23.9486 12.2468 23.8849 12.2551L15.001 13.4155L18.2198 18.0828C18.2509 18.1279 18.2604 18.1845 18.2458 18.2372L18.2433 18.2462C18.2349 18.2764 18.2133 18.3013 18.1845 18.3139C18.1354 18.3354 18.0786 18.3301 18.0343 18.2998L14.7365 16.0454L15.7498 19.0547C16.8779 19.1936 17.7513 20.1553 17.7513 21.3209C17.7513 22.582 16.7289 23.6044 15.4678 23.6044C14.2067 23.6044 13.1843 22.582 13.1843 21.3209C13.1843 20.3282 13.8178 19.4834 14.7026 19.1688L13.1728 16.0063L12.1715 23.9864C12.1613 24.0681 12.0918 24.1293 12.0096 24.1293C11.9273 24.1293 11.8579 24.0682 11.8476 23.9866L10.8464 16.0764L9.18722 19.1122C10.1666 19.3695 10.8889 20.2608 10.8889 21.3209C10.8889 22.582 9.8666 23.6044 8.60547 23.6044C7.34434 23.6044 6.32199 22.582 6.32199 21.3209C6.32199 20.2418 7.07052 19.3375 8.07668 19.099L9.02074 16.2203L6.03855 18.3141C5.99358 18.3456 5.93683 18.3554 5.88389 18.3407L5.87516 18.3383C5.84498 18.3299 5.82018 18.3084 5.80762 18.2797C5.7861 18.2305 5.79153 18.1736 5.822 18.1294L9.06182 13.4255L0.113599 12.2402C0.0485812 12.2316 0 12.1762 0 12.1106V12.0991C0 12.0333 0.048887 11.9777 0.114151 11.9693L7.77287 10.988L9.06446 10.8246L5.71414 6.04834C5.68259 6.00336 5.67283 5.94662 5.68754 5.89368L5.68997 5.88494C5.69835 5.85476 5.71987 5.82996 5.74857 5.8174C5.79777 5.79587 5.85461 5.80131 5.89884 5.83177L10.7094 9.14505L11.9719 0.148743ZM15.4254 19.0069L14.0985 15.3218L13.4378 13.4233L13.3593 13.1977L13.36 13.1984L13.2162 12.7827L12.4493 13.8485L13.2506 15.4773L15.002 19.0761L15.1142 19.3445C14.1742 19.5116 13.4604 20.3329 13.4604 21.3209C13.4604 22.4296 14.3591 23.3283 15.4678 23.3283C16.5765 23.3283 17.4752 22.4296 17.4752 21.3209C17.4752 20.2378 16.6175 19.3551 15.5442 19.3149L15.4254 19.0069ZM12.2936 12.6607L8.93084 18.9752L8.76821 19.32C9.80076 19.4028 10.6129 20.267 10.6129 21.3209C10.6129 22.4296 9.71413 23.3283 8.60547 23.3283C7.49681 23.3283 6.59806 22.4296 6.59806 21.3209C6.59806 20.3159 7.33653 19.4835 8.30043 19.3365L8.41249 19.0393L9.95121 14.3569L10.3247 13.2676L10.5251 12.5106L10.5274 12.5128L10.5308 12.489L10.5348 12.474L10.5333 12.4713L11.9841 2.20348L12.2936 12.6607ZM13.2843 10.6541L13.1806 9.60311L16.7284 7.14418L13.2843 10.6541ZM13.4116 11.945L13.3092 10.9065L13.6168 10.9412L21.2333 11.945H13.4116ZM12.1536 14.2596L12.2347 14.1468L12.9316 15.5473L12.1536 21.5073L12.1536 14.2596ZM10.4658 10.8807L10.4702 10.8498L7.03371 7.34671L9.51573 10.9024L10.4658 10.8807ZM10.2415 12.2718H2.66098L9.81421 13.1951L10.0446 13.2132L10.2415 12.2718ZM13.8852 13.7213L16.9851 16.8079L14.5031 13.2444L13.7017 13.3066L13.8852 13.7213ZM9.45324 14.9016L9.16741 15.7731L7.31357 17.0801L9.45324 14.9016ZM8.60547 22.8376C7.76779 22.8376 7.08872 22.1586 7.08872 21.3209C7.08872 20.4832 7.76779 19.8042 8.60547 19.8042C9.44314 19.8042 10.1222 20.4832 10.1222 21.3209C10.1222 22.1586 9.44314 22.8376 8.60547 22.8376ZM6.81265 21.3209C6.81265 22.311 7.61532 23.1137 8.60547 23.1137C9.59561 23.1137 10.3983 22.311 10.3983 21.3209C10.3983 20.3308 9.59561 19.5281 8.60547 19.5281C7.61532 19.5281 6.81265 20.3308 6.81265 21.3209ZM13.9511 21.3209C13.9511 22.1586 14.6301 22.8376 15.4678 22.8376C16.3055 22.8376 16.9845 22.1586 16.9845 21.3209C16.9845 20.4832 16.3055 19.8042 15.4678 19.8042C14.6301 19.8042 13.9511 20.4832 13.9511 21.3209ZM15.4678 23.1137C14.4777 23.1137 13.675 22.311 13.675 21.3209C13.675 20.3308 14.4777 19.5281 15.4678 19.5281C16.4579 19.5281 17.2606 20.3308 17.2606 21.3209C17.2606 22.311 16.4579 23.1137 15.4678 23.1137ZM11.3598 12.9622C11.6595 12.9622 11.9025 12.7192 11.9025 12.4195C11.9025 12.1198 11.6595 11.8768 11.3598 11.8768C11.0601 11.8768 10.8171 12.1198 10.8171 12.4195C10.8171 12.7192 11.0601 12.9622 11.3598 12.9622ZM11.6554 12.4195C11.6554 12.5828 11.5231 12.7152 11.3598 12.7152C11.1965 12.7152 11.0641 12.5828 11.0641 12.4195C11.0641 12.2562 11.1965 12.1238 11.3598 12.1238C11.5231 12.1238 11.6554 12.2562 11.6554 12.4195Z" fill="#1A1A1A"/>
</svg>
