<?xml version="1.0" standalone="no"?>
<!DOCTYPE svg PUBLIC "-//W3C//DTD SVG 20010904//EN"
 "http://www.w3.org/TR/2001/REC-SVG-20010904/DTD/svg10.dtd">
<svg version="1.0" xmlns="http://www.w3.org/2000/svg"
 width="162.000000pt" height="168.000000pt" viewBox="0 0 162.000000 168.000000"
 preserveAspectRatio="xMidYMid meet">

<g transform="translate(0.000000,168.000000) scale(0.100000,-0.100000)"
fill="#000000" stroke="none">
<path d="M520 1503 c0 -4 53 -156 118 -338 l117 -330 50 -10 49 -11 72 -134
72 -134 -20 -29 c-42 -58 -33 -156 19 -218 35 -41 74 -59 127 -59 39 0 47 -4
60 -28 16 -31 50 -64 85 -82 19 -10 26 -9 40 4 15 16 13 20 -27 53 -59 49 -68
75 -39 114 34 48 31 135 -8 191 -39 54 -86 81 -141 81 l-44 0 -144 266 c-80
146 -193 356 -253 465 -93 172 -134 233 -133 199z m634 -1004 c63 -50 75 -132
26 -181 -27 -26 -36 -30 -67 -25 -73 12 -125 95 -103 162 21 64 91 86 144 44z"/>
<path d="M972 1285 c-67 -123 -122 -231 -122 -240 0 -16 51 -115 60 -115 6 0
200 550 200 568 0 33 -25 -6 -138 -213z"/>
<path d="M649 693 c-51 -94 -68 -118 -84 -116 -38 4 -95 -18 -131 -49 -64 -56
-82 -144 -45 -216 54 -107 219 -92 277 25 27 55 25 134 -6 175 l-23 32 22 40
c105 193 107 197 86 212 -10 8 -22 14 -26 14 -4 0 -35 -53 -70 -117z m-66
-184 c98 -45 27 -231 -81 -215 -44 7 -60 20 -73 66 -10 33 -9 44 11 84 32 67
86 91 143 65z"/>
</g>
</svg>
