<?xml version="1.0" standalone="no"?>
<!DOCTYPE svg PUBLIC "-//W3C//DTD SVG 20010904//EN"
 "http://www.w3.org/TR/2001/REC-SVG-20010904/DTD/svg10.dtd">
<svg version="1.0" xmlns="http://www.w3.org/2000/svg"
 width="162.000000pt" height="168.000000pt" viewBox="0 0 162.000000 168.000000"
 preserveAspectRatio="xMidYMid meet">

<g transform="translate(0.000000,168.000000) scale(0.100000,-0.100000)"
fill="#000000" stroke="none">
<path d="M653 1471 c-62 -3 -117 -11 -122 -16 -6 -6 -12 -21 -13 -35 l-3 -24
176 3 c153 3 178 1 192 -14 9 -9 17 -27 17 -39 0 -23 -3 -24 -132 -30 -168 -8
-238 -16 -238 -26 0 -9 82 -17 255 -24 61 -3 111 -5 113 -6 1 0 2 -17 2 -39
l0 -38 -132 -7 c-73 -4 -157 -9 -186 -13 -99 -11 -38 -25 139 -31 l174 -7 0
-40 0 -40 -177 -11 c-258 -15 -251 -31 19 -43 l158 -6 0 -40 0 -40 -145 -6
c-80 -4 -165 -10 -190 -14 -42 -7 -43 -8 -20 -17 14 -5 99 -12 190 -16 l165
-7 0 -40 0 -40 -156 -7 c-85 -3 -171 -11 -190 -16 l-34 -9 45 -8 c25 -4 110
-10 190 -14 l145 -6 0 -40 0 -40 -166 -7 c-187 -8 -250 -21 -159 -32 30 -4
116 -10 190 -14 l135 -7 0 -40 0 -40 -174 -7 c-173 -7 -234 -20 -149 -31 24
-4 107 -9 186 -13 131 -6 142 -8 142 -26 0 -11 -5 -28 -10 -39 -10 -18 -23
-19 -196 -19 l-185 0 6 -22 c4 -13 13 -28 21 -34 15 -12 218 -24 396 -24 102
0 110 1 133 25 l25 24 0 556 0 556 -25 24 c-23 24 -28 25 -162 23 -76 -1 -188
-4 -250 -7z"/>
</g>
</svg>
