<?xml version="1.0" standalone="no"?>
<!DOCTYPE svg PUBLIC "-//W3C//DTD SVG 20010904//EN"
 "http://www.w3.org/TR/2001/REC-SVG-20010904/DTD/svg10.dtd">
<svg version="1.0" xmlns="http://www.w3.org/2000/svg"
 width="162.000000pt" height="168.000000pt" viewBox="0 0 162.000000 168.000000"
 preserveAspectRatio="xMidYMid meet">

<g transform="translate(0.000000,168.000000) scale(0.100000,-0.100000)"
fill="#000000" stroke="none">
<path d="M719 1545 c-57 -18 -123 -87 -138 -143 -8 -30 -18 -41 -36 -46 -36
-9 -50 -41 -30 -72 l15 -24 254 0 c232 0 254 1 269 18 22 24 21 45 -1 65 -16
14 -44 17 -187 17 -93 0 -166 3 -163 6 4 3 68 15 145 26 76 11 140 22 142 24
2 2 -8 21 -22 43 -52 78 -158 114 -248 86z"/>
<path d="M550 865 l0 -355 103 0 102 1 110 94 110 95 3 -95 c2 -87 4 -95 22
-95 20 0 20 9 20 355 l0 355 -98 0 -98 0 -110 -95 c-60 -52 -112 -95 -116 -95
-5 0 -8 43 -8 95 0 88 -1 95 -20 95 -20 0 -20 -7 -20 -355z m430 162 l0 -133
-184 -159 c-102 -88 -190 -161 -195 -163 -8 -3 -11 39 -11 126 l0 130 191 166
c105 91 192 166 195 166 2 0 4 -60 4 -133z"/>
<path d="M516 444 c-21 -20 -20 -37 2 -57 16 -14 44 -17 180 -17 89 0 162 -4
162 -8 0 -8 -201 -42 -248 -42 -31 0 -28 -28 8 -72 107 -130 323 -88 371 73
10 31 20 44 41 51 32 11 47 50 28 73 -19 23 -521 22 -544 -1z"/>
</g>
</svg>
