<?xml version="1.0" standalone="no"?>
<!DOCTYPE svg PUBLIC "-//W3C//DTD SVG 20010904//EN"
 "http://www.w3.org/TR/2001/REC-SVG-20010904/DTD/svg10.dtd">
<svg version="1.0" xmlns="http://www.w3.org/2000/svg"
 width="162.000000pt" height="168.000000pt" viewBox="0 0 162.000000 168.000000"
 preserveAspectRatio="xMidYMid meet">

<g transform="translate(0.000000,168.000000) scale(0.100000,-0.100000)"
fill="#000000" stroke="none">
<path d="M724 1481 c-93 -24 -195 -108 -229 -187 -9 -22 -17 -64 -17 -95 -1
-50 6 -70 83 -220 82 -160 85 -164 118 -167 l34 -3 -7 53 c-4 29 -9 80 -12
113 -5 57 -4 59 10 35 8 -14 29 -64 47 -112 31 -86 32 -88 64 -88 32 0 33 2
65 90 18 49 39 97 47 107 13 16 14 12 9 -42 -3 -33 -8 -82 -12 -108 l-7 -48
34 3 c33 3 36 7 118 167 76 149 84 170 84 220 0 151 -146 281 -323 287 -41 2
-89 0 -106 -5z"/>
<path d="M616 748 c-20 -29 -20 -34 4 -58 18 -18 33 -20 191 -20 98 0 178 4
190 10 22 12 26 59 7 78 -8 8 -66 12 -194 12 -178 0 -183 -1 -198 -22z"/>
<path d="M656 615 c-3 -8 -12 -79 -21 -157 -8 -79 -17 -161 -20 -184 -8 -74
-5 -75 205 -72 l185 3 3 59 c3 54 -22 307 -34 349 -5 15 -21 17 -159 17 -126
0 -154 -3 -159 -15z"/>
</g>
</svg>
