<svg width="19" height="19" viewBox="0 0 19 19" fill="none" xmlns="http://www.w3.org/2000/svg">
<path d="M7.125 9.5C7.125 10.1299 7.37522 10.734 7.82062 11.1794C8.26602 11.6248 8.87011 11.875 9.5 11.875C10.1299 11.875 10.734 11.6248 11.1794 11.1794C11.6248 10.734 11.875 10.1299 11.875 9.5" stroke="black" stroke-width="0.833333" stroke-linecap="round"/>
<path d="M3.5625 6.94675C3.5625 6.44581 3.5625 6.19534 3.63401 5.95915C3.70553 5.72296 3.84446 5.51456 4.12233 5.09775L4.15628 5.04683C4.64068 4.32022 4.88289 3.95692 5.25138 3.75971C5.61986 3.5625 6.0565 3.5625 6.92978 3.5625H12.0702C12.9435 3.5625 13.3801 3.5625 13.7486 3.75971C14.1171 3.95692 14.3593 4.32022 14.8437 5.04683L14.8777 5.09775C15.1555 5.51456 15.2945 5.72296 15.366 5.95915C15.4375 6.19534 15.4375 6.44581 15.4375 6.94675V12.1042C15.4375 13.6755 15.4375 14.4612 14.9493 14.9493C14.4612 15.4375 13.6755 15.4375 12.1042 15.4375H6.89583C5.32448 15.4375 4.53881 15.4375 4.05066 14.9493C3.5625 14.4612 3.5625 13.6755 3.5625 12.1042V6.94675Z" stroke="black" stroke-width="0.833333"/>
<path d="M3.5625 7.52051H15.4375" stroke="black" stroke-width="0.833333" stroke-linecap="round"/>
</svg>
