<svg width="32" height="31" viewBox="0 0 32 31" fill="none" xmlns="http://www.w3.org/2000/svg">
<rect x="1" y="0.5" width="30" height="30" rx="15" stroke="black"/>
<path fill-rule="evenodd" clip-rule="evenodd" d="M16.1011 9.2998C16.4962 9.2998 16.8165 9.62009 16.8165 10.0152V19.2573L20.1479 15.9259C20.4273 15.6465 20.8802 15.6465 21.1596 15.9259C21.439 16.2053 21.439 16.6582 21.1596 16.9376L16.6069 21.4903C16.3276 21.7696 15.8746 21.7696 15.5952 21.4903L11.0425 16.9376C10.7632 16.6582 10.7632 16.2053 11.0425 15.9259C11.3219 15.6465 11.7749 15.6465 12.0542 15.9259L15.3857 19.2573V10.0152C15.3857 9.62009 15.706 9.2998 16.1011 9.2998Z" fill="black"/>
</svg>
