<?xml version="1.0" standalone="no"?>
<!DOCTYPE svg PUBLIC "-//W3C//DTD SVG 20010904//EN"
 "http://www.w3.org/TR/2001/REC-SVG-20010904/DTD/svg10.dtd">
<svg version="1.0" xmlns="http://www.w3.org/2000/svg"
 width="162.000000pt" height="168.000000pt" viewBox="0 0 162.000000 168.000000"
 preserveAspectRatio="xMidYMid meet">

<g transform="translate(0.000000,168.000000) scale(0.100000,-0.100000)"
fill="#000000" stroke="none">
<path d="M593 1058 c-24 -12 -91 -66 -150 -120 -146 -133 -216 -163 -293 -123
-35 18 -38 9 -11 -43 23 -44 83 -103 129 -126 91 -46 241 -24 357 52 58 37
158 136 201 196 l20 28 19 -28 c35 -54 140 -157 200 -196 119 -78 267 -99 360
-50 47 24 106 83 129 129 24 47 20 56 -14 38 -75 -39 -148 -10 -280 111 -52
47 -114 99 -138 116 -77 53 -161 50 -236 -7 -28 -21 -48 -30 -52 -24 -3 6 -27
24 -52 40 -58 37 -127 39 -189 7z"/>
</g>
</svg>
