<?xml version="1.0" standalone="no"?>
<!DOCTYPE svg PUBLIC "-//W3C//DTD SVG 20010904//EN"
 "http://www.w3.org/TR/2001/REC-SVG-20010904/DTD/svg10.dtd">
<svg version="1.0" xmlns="http://www.w3.org/2000/svg"
 width="162.000000pt" height="168.000000pt" viewBox="0 0 162.000000 168.000000"
 preserveAspectRatio="xMidYMid meet">

<g transform="translate(0.000000,168.000000) scale(0.100000,-0.100000)"
fill="#000000" stroke="none">
<path d="M482 1338 c3 -122 5 -143 19 -146 12 -2 18 8 22 40 4 29 14 50 32 65
25 22 33 23 225 23 125 0 208 -4 223 -11 28 -13 47 -48 47 -85 0 -24 24 -43
38 -30 8 9 14 232 7 264 -3 14 -13 22 -25 22 -17 0 -20 -7 -20 -50 0 -46 -2
-50 -24 -50 -20 0 -25 6 -30 45 -11 73 -36 65 -36 -11 0 -31 -3 -34 -30 -34
-26 0 -30 4 -30 28 0 38 -11 73 -21 67 -4 -3 -11 -26 -15 -50 -6 -40 -9 -45
-33 -45 -23 0 -26 4 -29 42 -1 22 -5 45 -9 51 -10 16 -23 -16 -23 -55 0 -35
-2 -38 -29 -38 -27 0 -29 3 -35 51 -8 60 -24 55 -33 -10 -5 -37 -8 -41 -34
-41 -26 0 -28 3 -31 48 -3 49 -21 65 -26 22 -6 -60 -12 -70 -37 -70 -23 0 -25
3 -25 50 0 44 -3 50 -20 50 -20 0 -20 -5 -18 -142z"/>
<path d="M582 1262 c-16 -16 -20 -42 -26 -147 -4 -70 -5 -129 -3 -132 3 -2 26
11 51 30 59 46 106 61 186 60 73 0 154 -29 191 -69 12 -13 26 -24 31 -24 10 0
9 155 -1 228 -4 30 -14 58 -22 63 -8 5 -98 9 -201 9 -170 0 -190 -2 -206 -18z"/>
<path d="M710 1021 c-47 -15 -87 -40 -119 -76 -36 -41 -37 -60 -21 -253 5 -64
12 -156 15 -204 l7 -87 51 -18 c73 -25 224 -24 292 3 l50 20 7 119 c4 66 11
176 17 245 8 103 7 129 -5 147 -42 67 -132 113 -214 112 -30 0 -66 -4 -80 -8z"/>
<path d="M592 262 l3 -97 185 -3 c219 -3 210 -8 210 114 l0 81 -67 -19 c-82
-23 -235 -21 -296 5 l-38 16 3 -97z"/>
</g>
</svg>
