<?xml version="1.0" standalone="no"?>
<!DOCTYPE svg PUBLIC "-//W3C//DTD SVG 20010904//EN"
 "http://www.w3.org/TR/2001/REC-SVG-20010904/DTD/svg10.dtd">
<svg version="1.0" xmlns="http://www.w3.org/2000/svg"
 width="162.000000pt" height="168.000000pt" viewBox="0 0 162.000000 168.000000"
 preserveAspectRatio="xMidYMid meet">

<g transform="translate(0.000000,168.000000) scale(0.100000,-0.100000)"
fill="#000000" stroke="none">
<path d="M320 1161 c-5 -11 -10 -37 -10 -58 0 -47 -14 -63 -55 -63 -58 0 -60
-6 -63 -167 -4 -170 0 -179 68 -191 l45 -7 5 -51 c9 -90 -26 -84 475 -84 501
0 466 -6 475 83 l5 51 50 11 50 10 3 159 c3 174 -1 186 -52 186 -41 0 -56 16
-56 56 0 18 -4 44 -10 58 l-10 26 -454 0 c-440 0 -456 -1 -466 -19z m107 -241
c5 -26 10 -30 37 -30 23 0 41 9 61 30 16 17 36 30 45 30 9 0 29 -13 45 -30 37
-39 83 -41 119 -5 14 14 37 25 51 25 14 0 37 -11 51 -25 36 -36 82 -34 119 5
16 17 36 30 45 30 9 0 29 -13 45 -30 20 -21 38 -30 61 -30 28 0 33 4 36 27 3
31 35 44 49 21 11 -17 11 -129 0 -146 -13 -21 -44 -10 -51 18 -6 21 -11 25
-41 22 -22 -2 -45 -14 -66 -34 l-33 -32 -34 33 c-43 42 -84 47 -127 15 -40
-29 -76 -31 -104 -4 -12 11 -36 22 -54 24 -27 3 -41 -3 -72 -31 l-39 -35 -38
34 c-47 43 -93 46 -102 8 -4 -18 -13 -25 -30 -25 -23 0 -25 4 -28 60 -4 78 3
105 28 105 15 0 22 -9 27 -30z"/>
</g>
</svg>
